<?xml version="1.0" standalone="no"?>
<!DOCTYPE svg PUBLIC "-//W3C//DTD SVG 20010904//EN"
 "http://www.w3.org/TR/2001/REC-SVG-20010904/DTD/svg10.dtd">
<svg version="1.0" xmlns="http://www.w3.org/2000/svg"
 width="2000.000000pt" height="2000.000000pt" viewBox="0 0 2000.000000 2000.000000"
 preserveAspectRatio="xMidYMid meet">

<g transform="translate(0.000000,2000.000000) scale(0.100000,-0.100000)"
fill="#000000" stroke="none">
<path d="M4420 15725 c0 -4 186 -275 610 -890 305 -441 769 -1116 805 -1170
22 -33 42 -62 45 -65 6 -6 27 -36 132 -190 46 -69 104 -152 127 -185 23 -33
84 -123 137 -200 52 -77 133 -196 180 -265 271 -393 767 -1113 889 -1290 78
-113 306 -443 507 -735 201 -291 492 -714 646 -939 155 -224 282 -412 282
-417 0 -5 -32 -46 -71 -92 -187 -215 -246 -284 -274 -318 -38 -46 -320 -373
-362 -419 -17 -19 -42 -48 -54 -65 -13 -16 -26 -32 -29 -35 -3 -3 -48 -54
-100 -115 -52 -60 -97 -112 -100 -115 -3 -3 -28 -32 -55 -65 -28 -33 -52 -62
-55 -65 -6 -6 -253 -292 -404 -469 -54 -64 -113 -132 -130 -151 -17 -19 -54
-62 -81 -95 -28 -33 -52 -62 -55 -65 -3 -3 -32 -36 -65 -75 -33 -38 -63 -72
-66 -75 -3 -3 -32 -37 -65 -76 -72 -85 -236 -277 -244 -284 -4 -4 -69 -79
-266 -310 -139 -162 -473 -552 -497 -580 -12 -14 -76 -88 -142 -165 -66 -77
-125 -145 -131 -152 -6 -6 -58 -67 -115 -135 -57 -67 -124 -145 -150 -173 -25
-27 -67 -77 -95 -110 -27 -33 -51 -62 -54 -65 -3 -3 -32 -36 -65 -75 -33 -38
-62 -72 -65 -75 -3 -3 -73 -84 -155 -180 -82 -96 -152 -177 -155 -180 -3 -3
-28 -32 -55 -65 -28 -33 -66 -78 -87 -100 -58 -63 -118 -142 -118 -154 0 -8
131 -11 464 -11 l463 0 39 43 c22 24 48 54 59 68 11 13 61 71 110 128 50 58
134 157 189 220 54 64 125 146 158 182 32 37 68 80 80 95 12 16 25 31 28 34 3
3 49 55 100 115 52 61 99 115 105 121 5 6 28 33 50 59 22 27 45 53 50 59 6 6
64 74 130 151 66 77 134 156 152 175 17 19 42 49 55 65 13 17 36 44 52 60 15
17 45 50 64 75 20 25 57 68 82 95 25 28 94 109 155 180 60 72 126 148 147 170
20 22 49 56 65 75 30 39 204 242 213 250 3 3 59 68 125 145 66 77 134 156 152
175 17 19 42 49 54 65 13 17 29 35 35 42 6 6 58 67 115 135 57 67 124 145 150
173 25 27 67 77 95 110 27 33 55 67 63 75 15 15 272 314 589 684 90 105 187
218 216 251 29 33 75 87 103 120 27 33 57 66 67 74 23 20 12 34 214 -264 41
-60 100 -146 131 -190 30 -44 77 -111 103 -150 26 -38 97 -142 157 -230 61
-88 131 -191 156 -228 25 -38 50 -74 55 -80 6 -7 151 -217 323 -467 172 -250
686 -996 1141 -1657 l829 -1203 1638 0 c1432 0 1639 2 1639 15 0 8 -274 412
-608 897 -335 486 -637 926 -673 978 -36 52 -92 133 -124 180 -153 220 -237
343 -305 445 -19 29 -43 63 -52 76 -41 56 -169 243 -185 270 -9 16 -20 29 -24
29 -4 0 -9 8 -12 18 -4 9 -57 90 -119 179 -108 156 -845 1224 -1408 2043 -146
212 -436 631 -643 932 -207 301 -377 552 -377 558 0 10 112 143 415 496 66 76
136 157 157 179 20 22 49 56 65 75 30 39 204 242 213 250 3 3 28 32 55 65 28
33 67 78 87 100 20 22 51 58 68 80 17 22 48 58 69 80 20 22 48 54 61 71 30 37
311 364 356 414 18 19 74 85 125 146 114 134 391 457 399 464 3 3 59 68 125
145 65 77 137 160 160 186 22 25 49 56 60 70 27 33 208 243 214 249 4 3 28 32
56 65 27 33 52 62 55 65 6 5 276 319 341 396 21 24 60 70 87 101 28 32 123
144 213 248 89 105 178 208 198 231 87 99 148 170 171 199 27 33 201 237 210
245 18 16 180 210 180 214 0 3 -211 6 -469 6 l-470 0 -65 -72 c-35 -40 -128
-147 -206 -238 -79 -91 -154 -178 -169 -195 -14 -16 -49 -57 -76 -90 -28 -33
-52 -62 -55 -65 -3 -3 -35 -39 -70 -80 -36 -41 -67 -77 -71 -80 -3 -3 -34 -39
-70 -81 -148 -174 -364 -424 -369 -429 -3 -3 -28 -32 -55 -65 -28 -33 -52 -62
-55 -65 -7 -6 -189 -217 -215 -249 -11 -14 -38 -45 -60 -70 -23 -26 -95 -109
-160 -186 -66 -77 -122 -142 -125 -145 -3 -3 -27 -32 -55 -65 -27 -33 -52 -62
-55 -65 -6 -6 -136 -156 -284 -329 -54 -64 -122 -143 -151 -176 -29 -33 -66
-76 -81 -95 -16 -19 -45 -53 -65 -75 -20 -22 -79 -90 -130 -151 -117 -137
-383 -447 -426 -494 -17 -19 -42 -48 -54 -65 -13 -16 -40 -48 -60 -70 -21 -22
-52 -58 -69 -80 -17 -22 -48 -58 -68 -80 -21 -22 -60 -67 -87 -100 -28 -33
-52 -62 -55 -65 -3 -3 -28 -32 -55 -65 -85 -102 -112 -128 -124 -121 -7 4 -33
40 -60 79 -26 40 -66 99 -89 132 -23 33 -68 98 -100 145 -154 226 -228 334
-477 695 -148 215 -352 512 -455 660 -102 149 -308 448 -458 665 -149 217
-494 717 -765 1110 l-492 715 -1648 3 c-906 1 -1647 0 -1647 -3z m3130 -1072
c124 -180 259 -377 301 -438 41 -60 109 -159 151 -220 41 -60 95 -139 120
-175 24 -36 89 -130 143 -210 118 -174 138 -203 145 -210 3 -3 48 -68 100
-145 52 -77 98 -144 102 -150 5 -5 110 -158 235 -340 267 -389 1538 -2235
2028 -2945 29 -41 97 -140 152 -220 55 -80 196 -284 313 -455 237 -343 328
-476 398 -580 26 -38 49 -72 52 -75 3 -3 25 -36 50 -74 24 -38 49 -74 55 -80
6 -6 26 -35 44 -64 19 -30 39 -59 46 -65 6 -7 32 -43 57 -82 43 -65 200 -295
343 -503 34 -48 329 -476 657 -952 327 -476 715 -1038 861 -1250 147 -212 267
-388 267 -393 0 -4 -334 -6 -741 -5 l-742 3 -86 125 c-48 69 -129 187 -181
263 -52 76 -139 202 -193 280 -85 123 -175 254 -227 332 -8 12 -27 39 -42 61
-15 21 -67 98 -116 169 -48 72 -367 535 -708 1030 -341 495 -856 1242 -1144
1660 -288 418 -632 918 -765 1110 -133 193 -277 402 -320 465 -43 63 -103 151
-134 195 -31 44 -82 118 -114 165 -82 121 -139 204 -199 291 -29 43 -75 110
-103 150 -27 41 -51 76 -55 79 -3 3 -48 68 -100 145 -52 77 -98 145 -102 150
-5 6 -39 55 -77 110 -37 55 -467 681 -956 1390 -964 1399 -1207 1753 -1219
1773 -6 9 144 12 736 12 l743 0 225 -327z"/>
</g>
</svg>
